%FSLAX25Y25*%
%MOIN*%
G70*
G01*
G75*
G04 Layer_Color=8421504*
%ADD10O,0.06102X0.02362*%
%ADD11R,0.06102X0.02362*%
%ADD12R,0.09843X0.05906*%
%ADD13R,0.27559X0.27559*%
%ADD14R,0.05118X0.02756*%
%ADD15R,0.10630X0.06299*%
%ADD16R,0.02756X0.05118*%
%ADD17C,0.02000*%
%ADD18C,0.05000*%
%ADD19C,0.03000*%
%ADD20C,0.37500*%
%ADD21C,0.08000*%
%ADD22C,0.06299*%
%ADD23C,0.04724*%
%ADD24C,0.05512*%
%ADD25C,0.05000*%
%ADD26R,0.04000X0.08000*%
%ADD27R,0.40000X0.40000*%
%ADD28C,0.00787*%
%ADD29C,0.03937*%
%ADD30C,0.00500*%
%ADD31C,0.01969*%
%ADD32C,0.01000*%
%ADD33C,0.00700*%
%ADD34R,0.27500X0.32500*%
%ADD35R,0.45000X0.22500*%
D10*
X738130Y195000D02*
D03*
Y200000D02*
D03*
Y205000D02*
D03*
Y210000D02*
D03*
Y215000D02*
D03*
Y220000D02*
D03*
Y225000D02*
D03*
X716870Y195000D02*
D03*
Y200000D02*
D03*
Y205000D02*
D03*
Y210000D02*
D03*
Y215000D02*
D03*
Y220000D02*
D03*
D11*
Y225000D02*
D03*
D12*
X762165Y269055D02*
D03*
Y250945D02*
D03*
X667165Y269055D02*
D03*
Y250945D02*
D03*
D13*
X735000Y260000D02*
D03*
X640000D02*
D03*
D14*
X622500Y198740D02*
D03*
Y191260D02*
D03*
X680000Y263740D02*
D03*
Y256260D02*
D03*
D15*
X705000Y254488D02*
D03*
Y265512D02*
D03*
X620000Y225512D02*
D03*
Y214488D02*
D03*
X790000D02*
D03*
Y225512D02*
D03*
D16*
X673740Y240000D02*
D03*
X666260D02*
D03*
M02*
