%FSLAX25Y25*%
%MOIN*%
G70*
G01*
G75*
%ADD10O,0.06102X0.02362*%
%ADD11R,0.06102X0.02362*%
%ADD12R,0.09843X0.05906*%
%ADD13R,0.27559X0.27559*%
%ADD14R,0.05118X0.02756*%
%ADD15R,0.10630X0.06299*%
%ADD16R,0.02756X0.05118*%
%ADD17C,0.02000*%
%ADD18C,0.05000*%
%ADD19C,0.03000*%
%ADD20C,0.37500*%
%ADD21C,0.08000*%
%ADD22C,0.06299*%
%ADD23C,0.04724*%
%ADD24C,0.05512*%
%ADD25C,0.05000*%
%ADD26R,0.04000X0.08000*%
%ADD27R,0.40000X0.40000*%
D10*
X738130Y195000D02*
D03*
Y200000D02*
D03*
Y205000D02*
D03*
Y210000D02*
D03*
Y215000D02*
D03*
Y220000D02*
D03*
Y225000D02*
D03*
X716870Y195000D02*
D03*
Y200000D02*
D03*
Y205000D02*
D03*
Y210000D02*
D03*
Y215000D02*
D03*
Y220000D02*
D03*
D11*
Y225000D02*
D03*
D12*
X762165Y269055D02*
D03*
Y250945D02*
D03*
X667165Y269055D02*
D03*
Y250945D02*
D03*
D13*
X735000Y260000D02*
D03*
X640000D02*
D03*
D14*
X622500Y198740D02*
D03*
Y191260D02*
D03*
X680000Y263740D02*
D03*
Y256260D02*
D03*
D15*
X705000Y254488D02*
D03*
Y265512D02*
D03*
X620000Y225512D02*
D03*
Y214488D02*
D03*
X790000D02*
D03*
Y225512D02*
D03*
D16*
X673740Y240000D02*
D03*
X666260D02*
D03*
D20*
X820000Y190000D02*
D03*
X590000D02*
D03*
Y250000D02*
D03*
X820000D02*
D03*
D21*
X630000Y150000D02*
D03*
X670000D02*
D03*
X700000D02*
D03*
X685000D02*
D03*
X645000D02*
D03*
X780000Y260000D02*
D03*
X740000Y150000D02*
D03*
X725000D02*
D03*
X775000D02*
D03*
X760000D02*
D03*
D22*
X692500Y200000D02*
D03*
Y209843D02*
D03*
Y219685D02*
D03*
X679508D02*
D03*
Y209843D02*
D03*
Y200000D02*
D03*
X760000Y220000D02*
D03*
Y210157D02*
D03*
Y200315D02*
D03*
X772992D02*
D03*
Y210157D02*
D03*
Y220000D02*
D03*
X640000Y320000D02*
D03*
Y310157D02*
D03*
Y300315D02*
D03*
X652992D02*
D03*
Y310157D02*
D03*
Y320000D02*
D03*
X690000D02*
D03*
Y310157D02*
D03*
Y300315D02*
D03*
X702992D02*
D03*
Y310157D02*
D03*
Y320000D02*
D03*
X740000D02*
D03*
Y310157D02*
D03*
Y300315D02*
D03*
X752992D02*
D03*
Y310157D02*
D03*
Y320000D02*
D03*
X590000D02*
D03*
Y310157D02*
D03*
Y300315D02*
D03*
X602992D02*
D03*
Y310157D02*
D03*
Y320000D02*
D03*
X790000D02*
D03*
Y310157D02*
D03*
Y300315D02*
D03*
X802992D02*
D03*
Y310157D02*
D03*
Y320000D02*
D03*
D23*
X650000Y195000D02*
D03*
Y205000D02*
D03*
X640000D02*
D03*
D24*
X820000Y290000D02*
D03*
Y330000D02*
D03*
X720000Y290000D02*
D03*
Y330000D02*
D03*
X770000Y290000D02*
D03*
Y330000D02*
D03*
X620000Y290000D02*
D03*
Y330000D02*
D03*
X670000Y290000D02*
D03*
Y330000D02*
D03*
M02*
