%FSLAX25Y25*%
%MOIN*%
G70*
G01*
G75*
G04 Layer_Color=16711935*
%ADD10O,0.06102X0.02362*%
%ADD11R,0.06102X0.02362*%
%ADD12R,0.09843X0.05906*%
%ADD13R,0.27559X0.27559*%
%ADD14R,0.05118X0.02756*%
%ADD15R,0.10630X0.06299*%
%ADD16R,0.02756X0.05118*%
%ADD17C,0.02000*%
%ADD18C,0.05000*%
%ADD19C,0.03000*%
%ADD20C,0.37500*%
%ADD21C,0.08000*%
%ADD22C,0.06299*%
%ADD23C,0.04724*%
%ADD24C,0.05512*%
%ADD25C,0.05000*%
%ADD26R,0.04000X0.08000*%
%ADD27R,0.40000X0.40000*%
%ADD28C,0.00787*%
%ADD29C,0.03937*%
%ADD30C,0.00500*%
%ADD31C,0.01969*%
%ADD32C,0.01000*%
%ADD33C,0.00700*%
%ADD34R,0.27500X0.32500*%
%ADD35R,0.45000X0.22500*%
%ADD36O,0.06702X0.02962*%
%ADD37R,0.06702X0.02962*%
%ADD38R,0.10443X0.06506*%
%ADD39R,0.28159X0.28159*%
%ADD40R,0.05718X0.03356*%
%ADD41R,0.11230X0.06899*%
%ADD42R,0.03356X0.05718*%
%ADD43C,0.38100*%
%ADD44C,0.08600*%
%ADD45C,0.06899*%
%ADD46C,0.05324*%
%ADD47C,0.06112*%
%ADD48C,0.00600*%
%ADD49C,0.00200*%
%ADD50C,0.00250*%
D30*
X700079Y266299D02*
X709922D01*
X700079Y253700D02*
Y266299D01*
Y253700D02*
X709922D01*
Y266299D01*
X615078Y213701D02*
X624921D01*
Y226300D01*
X615078D02*
X624921D01*
X615078Y213701D02*
Y226300D01*
X785079Y226299D02*
X794922D01*
X785079Y213700D02*
Y226299D01*
Y213700D02*
X794922D01*
Y226299D01*
D49*
X624961Y191063D02*
Y198937D01*
X620039Y191063D02*
X624961D01*
X620039D02*
Y198937D01*
X624961D01*
X666063Y237539D02*
X673937D01*
X666063D02*
Y242461D01*
X673937D01*
Y237539D02*
Y242461D01*
X682461Y256063D02*
Y263937D01*
X677539Y256063D02*
X682461D01*
X677539D02*
Y263937D01*
X682461D01*
D50*
X623250Y197000D02*
X623499Y197250D01*
Y197750D01*
X623250Y198000D01*
X622250D01*
X622000Y197750D01*
Y197250D01*
X622250Y197000D01*
X623499Y195501D02*
Y196501D01*
X622750D01*
X623000Y196001D01*
Y195751D01*
X622750Y195501D01*
X622250D01*
X622000Y195751D01*
Y196251D01*
X622250Y196501D01*
X672000Y239250D02*
X672250Y239001D01*
X672750D01*
X673000Y239250D01*
Y240250D01*
X672750Y240500D01*
X672250D01*
X672000Y240250D01*
X671500Y239250D02*
X671251Y239001D01*
X670751D01*
X670501Y239250D01*
Y239500D01*
X670751Y239750D01*
X671001D01*
X670751D01*
X670501Y240000D01*
Y240250D01*
X670751Y240500D01*
X671251D01*
X671500Y240250D01*
X680750Y262000D02*
X681000Y262250D01*
Y262750D01*
X680750Y263000D01*
X679750D01*
X679500Y262750D01*
Y262250D01*
X679750Y262000D01*
X679500Y260751D02*
X681000D01*
X680250Y261501D01*
Y260501D01*
M02*
