M48
;Layer_Color=9474304
;FILE_FORMAT=2:5
INCH,LZ
;TYPE=PLATED
T1F00S00C0.01968
T2F00S00C0.02800
T3F00S00C0.03346
T4F00S00C0.03543
T5F00S00C0.06300
T6F00S00C0.25100
;TYPE=NON_PLATED
T7F00S00C0.13780
%
T01
X065Y0195
Y0205
X064
T02
X0625Y026
X06675
X068Y027
X0705
X07025Y02225
X071
X07075Y021
Y02025
X073Y0215
X0749Y0212
X07475Y022
X0678Y0244
X062Y021
T03
X082Y029
X077
X072
X067
X062
Y033
X067
X072
X077
X082
T04
X079Y0300315
Y0310157
X0802992
Y0300315
X0752992
Y0310157
X074
Y0300315
X0702992
Y0310157
X069
Y0300315
X0652992
Y0310157
X064
Y0300315
X0679508Y0219685
Y0209843
Y02
X06925
Y0209843
Y0219685
X076Y022
Y0210157
Y0200315
X0772992
Y0210157
Y022
X0602992Y0300315
Y0310157
X059
Y0300315
Y032
X0602992
X064
X0652992
X069
X0702992
X074
X0752992
X079
X0802992
T05
X063Y015
X0645
X067
X0685
X07
X0725
X074
X076
X0775
X078Y026
T06
X082Y019
Y025
X059
Y019
T07
X0565Y0155
X0845
X0565Y0345
X0845
M30
